<?xml version="1.0" encoding="utf-8"?>
<!-- Generator: Adobe Illustrator 28.4.1, SVG Export Plug-In . SVG Version: 6.00 Build 0)  -->
<svg version="1.1" id="Layer_1" xmlns="http://www.w3.org/2000/svg" xmlns:xlink="http://www.w3.org/1999/xlink" x="0px" y="0px"
	 viewBox="0 0 734.04 517.58" style="enable-background:new 0 0 734.04 517.58;" xml:space="preserve">
<style type="text/css">
	.st0{fill:#111111;}
</style>
<g>
	<g>
		<path class="st0" d="M129.76,281.46c-16.57-8.05-33.59-11.14-51.11-3.91c-20.28,8.37-40.13,5.07-59.97-1.45
			c-5.21-1.71-10.47-3.28-15.59-5.22c-1.21-0.46-2.78-2.16-2.77-3.28c0.11-13.11,0.48-26.22,0.82-39.33
			c0.01-0.45,0.36-0.89,0.79-1.91c4.42,1.22,9.08,1.96,13.27,3.77c20.58,8.89,41.24,8.48,61.66,0.16
			c20.89-8.51,41.48-4.99,61.45,1.78c14.14,4.8,27.26,5.42,41.31,0.68c10.32-3.49,21.04-6.82,31.79-7.7
			c8.64-0.7,18.16,0.9,26.29,4.06c23.8,9.24,46.95,8.79,70.43-0.61c14.23-5.7,28.51-4.54,42.91,0.58
			c19.62,6.98,39.35,10.01,59.81,1.8c20.6-8.27,41.43-5.71,62.04,1.19c6.9,2.31,14.05,4.1,21.21,5.34
			c9.57,1.66,18.51-1.99,27.17-5.23c21.51-8.04,42.94-8.04,64.46-0.59c9.15,3.17,18.25,7.01,28.09,5.73
			c7.35-0.96,14.72-2.7,21.71-5.16c20.22-7.09,40.19-6.5,60.14,0.65c12.02,4.31,24.27,5.45,37.19,2.75c0,7.53,0.27,14.76-0.06,21.96
			c-0.5,10.6-0.95,10.74-11.91,11.31c-11.1,0.58-21.26-2.75-31.4-6.71c-12.52-4.89-25.47-6.32-38.63-2.91
			c-10.43,2.7-20.79,5.65-31.15,8.61c-11.49,3.29-22.3,0.5-33.25-2.91c-8.38-2.61-17-4.59-25.64-6.25
			c-13.17-2.52-25.98,0.27-38.15,4.89c-18.83,7.15-37.38,6.46-56.21,0.49c-19.57-6.2-39.07-7.1-58.57,0.79
			c-16.4,6.64-33.01,4.35-49.53,0.12c-6.92-1.77-13.76-3.95-20.77-5.28c-13.7-2.61-26.89,0.85-39.68,5.05
			c-15.85,5.2-31.35,4.33-47.22,0.49c-12.22-2.96-24.17-7.66-37.13-6.79c-2.8,0.19-5.63,0.03-8.44,0.6
			c6.25,0.32,12.59,0.09,18.72,1.11c8.01,1.33,16.04,3.11,23.75,5.65c18.33,6.04,36.42,6.57,54.84,0.31
			c17.52-5.95,34.92-4.66,52.37,1.42c19,6.62,38.25,8.07,57.65,0.66c15.91-6.08,31.98-4.75,48.03,0.04
			c12.07,3.6,23.96,8.73,36.94,7.27c7.56-0.85,15.39-1.66,22.44-4.26c24.85-9.18,48.71-5.76,72.4,3.91
			c12.97,5.3,25.82,2.59,38.62-0.85c8.34-2.24,16.62-4.73,25.02-6.71c12.72-3,24.43,1.29,35.8,6.13
			c12.14,5.17,24.53,7.07,37.55,5.03c0.79-0.12,1.62-0.02,2.92-0.02c0,3.91,0.29,7.69-0.2,11.37c-0.13,0.95-2.58,2.04-4.09,2.31
			c-15.42,2.72-30.09-0.63-44.42-5.98c-13.63-5.08-26.69-2.73-39.95,1.78c-13.82,4.7-27.71,10.04-42.71,8.36
			c-5.86-0.65-11.76-2.3-17.26-4.48c-18.32-7.23-36.5-7.42-55.1-1c-13.51,4.66-27.26,9.28-41.87,7.44
			c-6.7-0.84-13.38-2.63-19.78-4.82c-17.4-5.97-34.55-5.77-51.84,0.43c-6.87,2.46-13.99,4.27-21.08,6.04
			c-10.17,2.53-20.11,1.02-30.02-1.93c-8.27-2.46-16.62-4.81-25.08-6.47c-11.95-2.35-23.6-0.11-34.66,4.5
			c-18.12,7.56-36.39,8.25-55.12,2.69c-6.33-1.88-12.88-3-19.6-3.46c8.92,2.34,17.84,4.68,26.76,7c17.07,4.44,33.65,2.63,49.88-3.86
			c14.06-5.62,28.27-5.33,42.58-1.06c3.82,1.14,7.77,2,11.4,3.58c15.22,6.62,30.4,5.31,45.89,0.9c10.51-3,21.22-5.56,32-7.28
			c10.11-1.62,19.99,1.49,29.2,5.22c19.23,7.79,38.07,5.68,57.16-0.11c10.47-3.18,20.98-7.35,32.19-5.46
			c8.6,1.45,17.24,3.4,25.43,6.33c13.78,4.93,27.46,5.87,41.6,2.15c11.25-2.96,22.56-5.7,33.89-8.29
			c9.94-2.27,19.74-0.66,28.81,3.38c13.57,6.05,27.32,9.49,42.18,6.54c0.8-0.16,1.66-0.08,2.49-0.06c0.32,0.01,0.64,0.16,1.29,0.33
			c0.18,0.94,0.55,2.03,0.56,3.11c0.07,7.66-0.04,15.33,0.13,22.99c0.07,3.29-0.93,4.64-4.45,4.96
			c-11.43,1.03-22.37-0.16-33.42-3.73c-12.26-3.95-24.73-8.87-38-6.36c-9.44,1.79-18.73,4.54-27.94,7.33
			c-12.65,3.83-25.15,3.26-37.91,0.49c-13.6-2.95-27.3-6.06-41.11-7.23c-7.61-0.64-15.73,1.97-23.31,4.18
			c-14.24,4.16-28.52,6.96-43.3,4.05c-7-1.38-14.11-2.84-20.73-5.39c-14.68-5.67-29.13-5.41-43.94-0.73
			c-7.75,2.45-15.76,4.09-23.71,5.84c-10.93,2.41-21.96,2.65-32.55-1.19c-21.03-7.63-42.02-9.57-63.36-1.41
			c-18.33,7.01-36.56,5.46-54.7-0.93c-2.19-0.77-4.52-1.17-6.7-1.96c-13.01-4.76-25.79-4.65-38.98,0.02
			c-12.68,4.49-25.78,8.76-39.43,7.72c-9.51-0.72-18.86-3.52-28.29-5.34c-9.3-1.8-18.59-4.7-27.94-4.95
			c-8.59-0.23-17.49,1.64-25.85,4c-13.9,3.92-27.57,7.8-42.15,3.97c-8.21-2.15-16.48-4.03-24.74-6c-9.43-2.25-9.33-2.24-9.39-11.98
			c-0.06-9.66-0.18-19.33-0.62-28.97c-0.2-4.3,1.42-4.63,5.01-3.77c10.18,2.46,20.36,5.1,30.68,6.82
			c14.16,2.36,28.07,0.19,40.93-5.94c16.71-7.98,33.51-8.87,50.89-3.13C128.43,281.47,129.12,281.41,129.76,281.46z"/>
		<path class="st0" d="M134.37,156.48c4.79-8.27,12.25-10.91,20.56-10.79c11.54,0.16,22.51-2.16,33.1-6.36
			c18.99-7.53,37.84-8.19,56.7,0.25c19.4,8.68,38.89,8.37,58-0.4c16.05-7.37,31.85-6.11,48.11-1.23c8.88,2.66,18,4.74,27.14,6.27
			c11.79,1.98,23.02-0.94,34.13-4.96c17.82-6.44,35.75-6.44,53.75-0.04c11.12,3.95,22.46,8.3,34.51,6.28
			c8.78-1.47,17.35-4.37,25.92-6.93c17.37-5.19,34.51-5.94,51.88,0.5c11.7,4.33,23.84,8.03,36.56,6.27
			c7.51-1.04,15.17-2.55,22.19-5.31c17.41-6.87,34.9-8.45,52.63-2.37c10.94,3.75,21.74,8.08,32.23,12.96
			c7.08,3.29,10.05,10.44,10.37,17.73c0.83,19.09,0.85,38.21,1.31,57.32c0.08,3.33-1.14,4.4-4.47,5.04
			c-13.83,2.68-26.85-0.84-39.51-5.29c-17.4-6.11-34.79-5.24-51.43,0.74c-17.88,6.43-34.73,6.44-52.55,0.23
			c-21.18-7.37-43.03-8.26-63.92,0.92c-18.22,8-35.3,4.39-52.81-1.59c-20.05-6.85-40.13-6.73-60.14,0.7
			c-18.05,6.71-35.97,4.12-53.89-1.02c-8.1-2.32-16.35-5.16-24.63-5.53c-7.73-0.35-16.1,0.96-23.3,3.8
			c-22.28,8.81-44.36,9.79-66.61,0.87c-19.27-7.72-38.06-5.61-56.82,1.65c-14.99,5.8-29.76,5.94-45.28,0.69
			c-15.92-5.38-32.68-8.45-49.6-5.07c-9.09,1.81-17.79,5.48-26.81,7.69c-15.76,3.84-31.05,1.27-46.01-4.35
			c-2.64-0.99-5.41-1.64-8.14-2.35c-7.48-1.93-7.62-1.91-7.52-9.82c0.24-18.48,0.57-36.96,0.96-55.44
			c0.2-9.2,6.38-14.81,16.12-14.28c4.1,0.22,8.29,1.06,12.18,2.38c14.05,4.78,27.69,3.86,41.42-1.44
			c10.41-4.03,21.08-7.01,32.51-6.73C120.02,137.88,126.04,141.22,134.37,156.48z M701.97,189.83c0.5-3.64,1.01-6.99-2.7-8.07
			c-9.22-2.68-18.46-5.64-27.91-7.08c-12.96-1.98-25.6,1.33-37.57,6c-16.21,6.33-32.07,6.41-48.12-0.05
			c-19.27-7.76-38.54-8.15-58.48-1.71c-10.13,3.28-21.1,5.14-31.73,5.35c-8.39,0.17-16.92-2.9-25.28-4.97
			c-18.06-4.46-36.37-6.8-54.13-0.32c-23.11,8.44-45.61,7.43-68.22-0.94c-9.19-3.4-18.57-5.57-28.31-3.51
			c-8.42,1.78-16.79,3.93-25.03,6.43c-16.57,5.01-32.8,5.91-49.29-0.81c-19.14-7.81-38.58-7.69-57.92-0.1
			c-9.51,3.73-19.26,6.46-29.59,6.33c-2.74-0.04-4.45,1.27-3.87,3.75c0.29,1.23,2.74,2.94,4.03,2.79c7.86-0.92,16.1-1.14,23.42-3.78
			c18.2-6.57,36.41-9.23,55.32-4.28c7.7,2.01,15.2,4.91,22.97,6.54c12.06,2.53,23.8-0.1,35.34-3.67
			c10.81-3.34,21.64-7.71,33.12-6.05c10.61,1.54,21.05,4.44,31.48,7.07c16.3,4.12,32.43,5.35,48.58-0.74
			c20.54-7.75,41.6-8.39,62.12-1.11c19.77,7.02,38.94,6.14,58.12-0.66c20.04-7.11,39.46-5.16,59.07,1.76
			c6.96,2.46,14.48,3.75,21.85,4.56c11.25,1.24,21.54-3.46,31.95-6.77c13.01-4.14,26.12-5.28,39.4-2.21
			C687.65,185.22,694.53,187.63,701.97,189.83z M123.78,185.33c0.6-5.52-2.28-8.35-6.56-8.5c-9.06-0.33-18.34-0.92-27.19,0.57
			c-18.4,3.1-36.1,10.82-55.42,7.73c-0.95-0.15-2.77,1.89-3.21,3.22c-0.22,0.66,1.8,2.96,2.81,2.97c8.58,0.08,17.33,0.83,25.71-0.56
			C81.02,187.25,101.51,178.17,123.78,185.33z"/>
		<path class="st0" d="M0.1,351.79c0-5.17,0.16-10.34-0.05-15.5c-0.17-4.07,1.09-5.41,5.26-4.3c8.2,2.18,16.64,3.55,24.71,6.09
			c13.76,4.32,27.06,3.49,40.66-0.88c11.38-3.66,23.03-7.14,35.27-5.32c9.54,1.41,19.43,2.09,28.4,5.25
			c18.2,6.42,35.91,5.33,53.9,0.03c7.01-2.07,14.11-3.87,21.22-5.6c11.38-2.77,22.08,0.87,32.84,3.75c11.72,3.14,23.4,7.69,35.7,6
			c10.48-1.44,20.83-4.23,31.04-7.11c13.61-3.84,26.95-3.19,40.39,0.55c7.52,2.09,15.08,4.13,22.72,5.72
			c10.38,2.17,20.52-0.06,30.57-2.59c9.67-2.43,19.32-4.96,29.01-7.33c7.67-1.87,15.19-0.76,22.68,1.34
			c10.56,2.96,21.03,6.52,31.79,8.36c12.27,2.1,24.77,0.67,36.44-3.65c19.2-7.12,38.14-5.89,57.31-0.37
			c13.31,3.84,26.79,7.28,40.77,4.33c6.95-1.47,13.76-3.7,20.54-5.87c12.99-4.17,25.98-5.52,39.22-1.18
			c10.71,3.51,21.69,6.32,32.14,10.46c12.84,5.08,18.53,16.14,19.4,29.11c0.73,10.85,0.4,21.93-0.95,32.73
			c-1.63,12.98-14.18,25.85-29.93,19.39c-5.66-2.32-11.78-3.49-17.64-5.35c-13.8-4.37-27.5-3.85-41.29,0.21
			c-8.28,2.44-16.71,4.38-25.08,6.5c-10.25,2.59-20.07,0.68-29.85-2.63c-14.29-4.83-28.94-8.41-44.1-6.21
			c-8.66,1.25-17.11,4.11-25.6,6.42c-15.96,4.35-31.83,5.11-47.58-0.84c-21.52-8.12-42.88-7.96-64.27,0.68
			c-13.02,5.26-26.35,4.57-39.72,1.2c-12.88-3.24-25.57-8.36-39.1-6.97c-8.86,0.91-17.68,3-26.27,5.44
			c-19.76,5.61-39.33,4.68-58.44-1.94c-16.68-5.78-32.67-5.17-49.32,0.15c-13.39,4.29-27.17,8.34-41.63,5.81
			c-4.07-0.71-8.23-1.56-12.03-3.12c-21.82-8.99-43.87-9.26-65.83-1.26c-18.97,6.91-37.46,6.12-56.06-0.95
			c-4.02-1.53-8.39-2.13-12.42-3.65c-1.38-0.52-3.08-2.49-3.14-3.86c-0.41-10.31-0.36-20.64-0.66-30.96
			c-0.11-3.63,1.29-4.24,4.5-3.44c8.55,2.13,17.1,4.27,25.73,6.02c14.39,2.92,28.38,0.65,42.41-3.1c9.9-2.65,20.11-4.92,30.29-5.49
			c7.39-0.41,15.18,1.48,22.37,3.69c11.95,3.68,23.62,8.62,36.42,6.9c7.19-0.96,14.59-2.22,21.26-4.92
			c18.57-7.5,36.82-7.03,55.57-0.79c11.34,3.77,23.07,7.19,35.23,5.66c7.69-0.97,15.41-2.71,22.77-5.16
			c19.54-6.49,38.71-6.22,58.2,0.48c18.25,6.28,36.8,7.28,55.18-0.17c20.12-8.15,40.18-5.74,60.1,0.67
			c17.23,5.55,34.24,6.27,51.13-1.18c2.27-1,4.73-1.57,7.09-2.39c15.42-5.35,30.55-2.65,45.64,1.58c7.84,2.2,15.62,4.67,23.58,6.32
			c14.83,3.09,28.68-1.01,42.19-6.76c13.17-5.6,26.5-5.65,39.98-1.23c3.94,1.29,7.82,2.87,11.85,3.79c1.86,0.42,4.01-0.41,6.02-0.67
			c-1.22-2.31-1.91-6.05-3.73-6.72c-20.86-7.67-41.85-10.43-62.92-0.32c-15.16,7.28-30.6,6.32-46.12,1.01
			c-12.19-4.17-24.67-7.54-37.61-6.9c-7.87,0.39-16.1,1.47-23.37,4.29c-18.45,7.15-36.61,6.94-55.24,1.26
			c-7.28-2.22-14.88-3.53-22.4-4.81c-11.09-1.89-22.03-0.47-32.35,3.73c-21,8.55-41.76,7.16-62.99,0.71
			c-9.43-2.86-19.5-4.9-29.28-4.91c-8.6-0.01-17.59,2.29-25.71,5.39c-19.54,7.48-38.53,4.7-57.73-0.76
			c-7.02-1.99-14.14-3.72-21.32-5c-10.68-1.91-20.77,1.09-30.76,4.52c-11.54,3.96-23.24,7.64-35.64,5.42
			c-6.68-1.2-13.53-2.56-19.7-5.25c-17.55-7.67-35.08-5.93-52.8-1.38c-7.4,1.9-14.73,4.15-22.22,5.63
			c-13.68,2.7-26.75-1.24-39.85-4.43c-4.04-0.98-8.11-1.99-12.22-2.47c-2.97-0.34-4.08-1.57-4.04-4.41
			c0.08-5.5,0.02-10.99,0.02-16.49C0.48,351.79,0.29,351.79,0.1,351.79z"/>
		<path class="st0" d="M159.62,478.57c6.81-1.37,13.61-2.04,19.91-4.16c12.73-4.29,25.54-8.36,39.05-6.54
			c10.99,1.49,21.87,4.14,32.63,6.91c13.87,3.57,27.3,4.15,41.17-0.76c11.68-4.13,23.63-9.28,36.33-7.71
			c10.61,1.31,21.13,4.1,31.41,7.18c16.41,4.92,32.53,5.9,49.02,0.39c8.31-2.78,16.96-5.48,25.6-6.09
			c8.77-0.62,17.79,0.95,26.56,2.4c7.02,1.16,13.83,3.54,20.72,5.43c15.05,4.12,29.62,1.06,43.56-4.17
			c19.62-7.36,39.18-6.95,57.99,0.64c20.26,8.18,39.29,5.23,58.73-1.65c16.11-5.7,32.11-6.27,47.97,1.39
			c12.26,5.92,25.13,8.5,38.71,5.14c0.78-0.19,1.61-0.16,3.22-0.3c0,6.14,0.07,12.04-0.02,17.95c-0.08,5.32-0.58,10.64-0.41,15.95
			c0.14,4.41-1.54,5.24-5.81,5.6c-17.16,1.44-32.64-5.5-48.79-9.01c-10.91-2.37-21.7-2.8-32.51,0.78
			c-9.44,3.13-18.97,6.06-28.56,8.68c-7.86,2.15-15.69,0.53-22.97-2.43c-25.99-10.55-51.98-10.41-77.81-0.06
			c-12.75,5.11-24.9,3.84-37.46-0.23c-14.73-4.77-29.62-9.86-45.42-7.09c-9.13,1.6-18.14,4.2-26.97,7.07
			c-14.84,4.82-29.28,4.92-43.88-1c-23.41-9.49-46.98-7.72-70.35,0.22c-16.41,5.58-32.41,6.33-48.46-1.39
			c-17.84-8.58-36-8.09-54.25-0.96c-12.36,4.83-25.07,8.21-38.49,5.91c-5.88-1.01-11.89-2.17-17.36-4.42
			c-18.01-7.4-35.79-6.81-54.17-1.14c-9.75,3.01-20.15,4.16-30.34,5.46c-13.99,1.77-26.87-3.69-40.02-7.17
			c-7.77-2.05-7.48-2.12-7.38-10.03c0.23-17.66,0.15-35.33,0.22-52.99c0.05-12.6,8.47-20.48,20.41-16.91
			c19.58,5.85,38.31,4.32,57.27-2.05c6.25-2.1,12.93-3.06,19.49-4.07c16.02-2.46,29.67,0.67,37.35,17.81
			c5.92-8.65,14.41-8.89,23.02-8.56c13.44,0.51,26.01-3.75,38.46-7.72c14.08-4.48,27.61-4.52,41.6,0.13
			c8.63,2.87,17.64,4.71,26.58,6.5c12.08,2.41,24.17,0.68,35.39-3.53c19.93-7.49,39.53-6.5,59.13,0.06
			c18.24,6.1,35.87,5.12,53.57-2.01c16.83-6.78,33.9-5.62,50.87-0.21c11.94,3.8,23.97,7.46,36.67,5.69c8.02-1.12,16.2-2.4,23.8-5.05
			c19.78-6.91,39.6-6.69,58.7,0.65c17.46,6.71,34.11,5.78,51.04-0.22c20.12-7.14,40.02-7.2,59.81,1.12
			c10.03,4.22,20.48,5.56,31.28,4.59c1.78-0.16,3.59-0.02,5.78-0.02c0,2.96-0.09,5.7,0.02,8.43c0.3,7.82,0.48,15.66,1.1,23.45
			c0.34,4.27-1.18,5.62-5.36,6.36c-12.69,2.23-24.52-0.22-35.85-5.66c-17.33-8.32-34.6-6.18-51.89-0.14
			c-18.74,6.54-37.09,8.37-56.43,0.77c-17.14-6.73-35.5-8.46-53.26-1.61c-20.48,7.9-40.85,8.68-61.44,1.33
			c-20.67-7.38-40.92-5.12-61.05,1.92c-15.03,5.25-29.97,4.64-45.09,0.25c-10.19-2.96-20.44-6.03-30.88-7.7
			c-12.9-2.06-25.13,2.53-36.86,7.14c-15.24,6-30.14,5.36-45.42,0.78c-8.12-2.44-16.38-4.51-24.7-6.14
			c-13.12-2.57-25.76,0-38.29,4.13c-6.73,2.22-13.75,3.62-20.71,5.05C160.25,471.91,159.5,472.43,159.62,478.57z M124.6,470.38
			c0.45-0.53,0.9-1.05,1.36-1.58c-1.76-2-3.16-4.88-5.37-5.8c-3.59-1.49-7.69-2.12-11.62-2.35c-13.59-0.77-26.23,3.53-38.86,7.78
			c-10.89,3.66-21.88,5.48-33.29,2.57c-2.04-0.52-4.83-1.69-5.59,1.94c-0.71,3.39,1.84,3.74,4.14,4.26
			c12.36,2.83,24.38,1.52,36.29-2.58C88.89,468.7,106.25,463.5,124.6,470.38z"/>
		<path class="st0" d="M2.15,0c8.01,2.32,15.48,4.43,22.92,6.64C36.17,9.92,36.19,9.95,36.1,21.5c-0.03,3.5-0.02,7.01-0.4,10.48
			c-0.44,4.01,0.74,5.57,5.08,5.66c12.04,0.25,23.58-1.96,34.48-6.82c13.47-6.01,27.1-7.45,41.28-3.24c0.64,0.19,1.3,0.3,1.97,0.35
			c0.29,0.02,0.6-0.21,1.41-0.52c0-6.54,0-13.29,0-20.35c9.79,2.03,19.01,4.04,28.27,5.84c8.93,1.74,8.96,1.64,9.08,10.92
			c0.05,4.12,0.01,8.24,0.01,12.41c9.98,1.4,18.68-0.32,27.24-3.31c11.02-3.85,22.14-7.9,34.03-6.43
			c7.69,0.95,15.53,2.39,22.75,5.09c18.11,6.78,35.97,7.38,54.05,0.42c20.7-7.97,41.55-6.94,62.07,0.07
			c19.46,6.64,38.46,6.79,57.44-1.11c18.29-7.62,36.36-5.61,54.5,0.68c19.52,6.76,39.04,4.77,58.38-0.92
			c10.8-3.18,21.7-5.69,32.92-4.07c7.17,1.04,14.24,3.16,21.19,5.32c12.13,3.76,24.21,7.75,37.11,4.65
			c6.94-1.67,13.9-3.47,20.57-5.96c14.9-5.55,29.84-6.02,45.06-1.75c3.97,1.11,8.05,1.87,12.71,2.94c0-8.54,0-16.61,0-24.37
			c12.33,1.01,24.13,1.97,36.73,3.01c0,2.42,0.05,5.51-0.01,8.61c-0.29,16.59-0.47,33.19-1.11,49.78c-0.06,1.66-2.91,4.52-4.53,4.58
			c-7.07,0.23-14.32,0.42-21.23-0.86c-9.26-1.72-18.29-4.77-27.39-7.33c-10.75-3.03-21.32-2.52-31.88,0.98
			c-8.02,2.66-16.1,5.16-24.23,7.46c-11.52,3.25-22.69,1.04-33.84-2.34c-8.39-2.54-16.85-5.09-25.46-6.6
			c-13.06-2.3-25.69,0.95-38.28,4.31c-9.27,2.48-18.76,5.86-28.13,5.8c-10.23-0.07-20.92-2.36-30.56-5.95
			c-20.37-7.59-40.09-6.83-59.61,1.68c-17.47,7.61-34.61,7.71-51.49-0.97c-17.52-9.01-35.05-6.9-52.74-1.12
			c-11.1,3.63-22.21,7.7-34.08,5.95c-9.17-1.35-18.29-3.43-27.22-5.93c-17.15-4.82-34.03-5.47-50.86,1.2
			c-21.2,8.4-42.35,8.88-63.5-0.37c-14.46-6.32-29.27-4.69-44.04-1.25c-4.85,1.13-9.75,2.27-14.39,4.02
			c-13.91,5.23-27.77,4.14-41.68,0.31c-8-2.2-15.99-4.45-23.9-6.93c-1.14-0.36-2.6-2.15-2.61-3.29C1.15,42.56,1.27,22.91,1.39,3.27
			C1.39,2.48,1.74,1.7,2.15,0z"/>
		<path class="st0" d="M0,131.53c0.6-12.77,1.21-25.64,1.86-39.37c7.05,2.07,13.63,3.65,19.95,5.93
			c18.38,6.61,36.53,6.05,54.64-0.91c17.19-6.61,34.32-7.23,51.48,0.27c21.42,9.36,42.73,7.12,64.2-0.38
			c11.47-4.01,23.36-7.22,35.73-4.49c5.65,1.25,11.32,2.86,16.63,5.14c16.98,7.3,34.02,6.29,51.28,1.41
			c10.68-3.02,21.15-7.99,32.54-6.47c9.49,1.27,19.01,3.25,28.14,6.1c18.82,5.87,37.36,6.37,55.65-1.3
			c20.37-8.54,40.46-7.53,60.7,0.27c14.35,5.53,28.96,5.07,43.68,1.36c14.51-3.65,28.98-8.3,44.18-6.47
			c7.52,0.91,15.09,2.8,22.2,5.41c14.39,5.27,28.67,4.26,43.19,1.17c12.19-2.59,24.42-5.06,36.7-7.19
			c9.31-1.62,18.17,0.99,26.88,4.02c1.85,0.64,3.69,1.3,6.31,2.23c0-8.07,0-15.62,0-22.72c12.24,1.28,23.86,2.5,36.17,3.79
			c0,3.43-0.1,7.84,0.02,12.25c0.39,14.48,0.77,28.96,1.35,43.43c0.16,3.99-0.64,5.89-5.26,6.22c-10.61,0.76-20.47-1.96-30.23-5.36
			c-15.64-5.45-31.45-8.66-47.9-4.26c-5.61,1.5-11.22,3.17-16.6,5.33c-14.95,6-29.98,4.98-45.07,1c-8.81-2.32-17.41-5.72-26.34-7.3
			c-15.2-2.7-29.76,1.49-43.97,6.41c-9.24,3.2-18.59,5.98-28.32,4.45c-7.97-1.25-15.94-3.34-23.52-6.13
			c-19.37-7.11-38.64-6.71-57.5,0.77c-15.78,6.26-31.18,4.98-46.95,0.79c-10.25-2.72-20.56-5.41-31.01-7.17
			c-12.36-2.09-23.6,3.06-34.65,7.55c-14.62,5.94-29.07,5.89-43.83,0.89c-8.95-3.03-17.86-6.56-27.08-8.28
			c-11.09-2.07-22.45-0.59-32.79,3.97c-21.38,9.42-42.48,8.11-64.18,1.09c-17.43-5.64-35.3-6.81-52.73,0.61
			c-17.87,7.6-35.64,8.12-53.9,1.22C15.03,134.32,7.82,133.39,0,131.53z"/>
	</g>
</g>
</svg>
